# xmcd
#
# Track frame offsets: 
#        150
#        10210
#        37212
#        52680
#        63446
#        82661
#        99882
#        140085
#        158874
#        186386
#        199925
#        218863
#        232498
#        251825
#        299839
#
# Disc length: 4693 seconds
#
# Revision: 0
# Processed by: cddbd v1.5.2PL0 Copyright (c) Steve Scherf et al.
# Submitted via: ExactAudioCopy v0.95b3
#
DISCID=e412530f
DTITLE=Jimi Hendrix  - Voodoo Blues 3  FLAC
DYEAR=1900
DGENRE=
TTITLE0=01 - #3
TTITLE1=02 If 6 Was 9 - If 6 Was 9
TTITLE2=03 Little Wing - Little Wing
TTITLE3=04 Little Miss Lover - Little Miss Lover
TTITLE4=05 Sweet Angel - Sweet Angel
TTITLE5=06 - Somewhere
TTITLE6=07 Its Too Bad - Its Too Bad
TTITLE7=08 Earth Blues - Earth Blues
TTITLE8=09 Cherokee Mist - Cherokee Mist
TTITLE9=10 Purple Haze - Purple Haze
TTITLE10=11 The Things I Used To Do - The Things I Used To Do
TTITLE11=12 Room Full Of Mirrors - Room Full Of Mirrors
TTITLE12=13 Gypsy Eyes - Gypsy Eyes
TTITLE13=14 Seven Dollars In My Pocket Blues - Seven Dollars In My Poc
TTITLE13=ket Blues
TTITLE14=15 Heartbreak Hotel - Blue Suede Shoes
EXTD=
EXTT0=
EXTT1=
EXTT2=
EXTT3=
EXTT4=
EXTT5=
EXTT6=
EXTT7=
EXTT8=
EXTT9=
EXTT10=
EXTT11=
EXTT12=
EXTT13=
EXTT14=
PLAYORDER=
